<svg xmlns="http://www.w3.org/2000/svg" width="360" height="64" viewBox="0 0 360 64">
  <defs>
    <g id="tile" transform="scale(.5)">
      <path d="M0 0 C1.45 1.24 1.45 1.24 2.94 2.5 C6.48 5.39 7.2 5.23 11.56 5 C16.67 4.79 16.67 4.79 20 6.88 C22.66 11.03 23.86 15.23 25 20 C25.99 19.67 26.98 19.34 28 19 C31.56 18.81 31.56 18.81 35 19 C37.37 21.37 37.34 22.06 37.44 25.31 C37.39 29.21 37.22 29.76 34.44 32.81 C33.63 33.53 32.83 34.26 32 35 C32.08 37.49 32.82 38.72 34.12 40.81 C35.45 44.13 34.81 46.58 34 50 C32.1 52.58 31.11 52.96 28 54 C26.29 54.1 24.58 54.15 22.87 54.16 C21.83 54.17 20.78 54.18 19.71 54.19 C18.58 54.19 17.45 54.2 16.29 54.2 C14.55 54.21 14.55 54.21 12.77 54.22 C10.32 54.23 7.86 54.24 5.4 54.24 C1.65 54.25 -2.11 54.28 -5.87 54.31 C-8.25 54.32 -10.64 54.32 -13.02 54.33 C-14.71 54.35 -14.71 54.35 -16.43 54.37 C-17.48 54.36 -18.53 54.36 -19.61 54.36 C-21 54.36 -21 54.36 -22.41 54.37 C-25.55 53.92 -27.44 52.85 -30 51 C-31.53 47.94 -31.23 45.38 -31 42 C-30.46 41.11 -29.93 40.23 -29.38 39.31 C-28.92 38.55 -28.47 37.79 -28 37 C-28.76 34.51 -29.82 33.18 -31.62 31.31 C-33.72 27.79 -33.6 24.01 -33 20 C-31 18 -31 18 -29.12 17.77 C-28.07 17.79 -28.07 17.79 -27 17.81 C-25.95 17.82 -25.95 17.82 -24.88 17.83 C-23 18 -23 18 -21 19 C-20.83 18.35 -20.66 17.7 -20.48 17.02 C-17.37 5.79 -12.74 -2.28 0 0 Z M-9.45 6.04 C-12.26 9.3 -14.01 12.44 -15.81 16.31 C-16.12 16.96 -16.44 17.6 -16.76 18.27 C-17.51 19.84 -18.26 21.42 -19 23 C-21.97 23 -24.94 23 -28 23 C-28.45 27.14 -28.45 27.14 -25.44 29.81 C-23.04 32.48 -23 32.79 -23.06 36.69 C-24 40 -24 40 -26 43 C-26.08 45.6 -26.08 45.6 -25 48 C-19.1 51.03 -12.4 50.57 -6 49.5 C0.39 48.43 6.68 48.72 13 50 C19.36 50.48 24.47 50.59 30 47 C29.45 43.63 28.95 41.92 27 39 C26.74 36.31 26.91 33.71 27 31 C27.62 30.77 28.24 30.55 28.88 30.31 C31.61 28.62 32.05 27.01 33 24 C32.31 24.05 31.63 24.09 30.92 24.14 C29.57 24.19 29.57 24.19 28.19 24.25 C27.29 24.3 26.4 24.34 25.48 24.39 C23 24 23 24 21.3 22.27 C20.01 20.01 18.93 17.78 17.94 15.38 C16.81 12.64 16.12 11.12 14 9 C11.3 8.95 11.3 8.95 8.25 9.19 C1.58 9.34 1.58 9.34 -1.56 6.5 C-2.37 5.68 -3.17 4.85 -4 4 C-7.15 3.68 -7.15 3.68 -9.45 6.04 Z " fill="#ffffff" transform="translate(46,5)"/>
      <path d="M0 0 C1.65 0 3.3 0 5 0 C5.33 1.32 5.66 2.64 6 4 C8.97 4.33 11.94 4.66 15 5 C15 3.35 15 1.7 15 0 C16.98 0 18.96 0 21 0 C21 1.65 21 3.3 21 5 C19.68 5 18.36 5 17 5 C17 6.32 17 7.64 17 9 C12.71 9 8.42 9 4 9 C3.67 7.68 3.34 6.36 3 5 C2.01 5 1.02 5 0 5 C0 3.35 0 1.7 0 0 Z " fill="#ffffff" transform="translate(38,21)"/>
    </g>
  </defs>
  <g opacity=".95" data-scale-pattern="large-small-medium">
    <use href="#tile" transform="translate(10 0) scale(1)"/>
    <use href="#tile" transform="translate(130 5) scale(.72)"/>
    <use href="#tile" transform="translate(250 2.5) scale(.86)"/>
    <use href="#tile" transform="translate(70 37) scale(.72)"/>
    <use href="#tile" transform="translate(190 34) scale(.86)"/>
    <use href="#tile" transform="translate(300 32) scale(1)"/>
  </g>
</svg>
